<svg id="svg" version="1.1" width="400" height="225" viewBox="0 0 400 225" xmlns="http://www.w3.org/2000/svg" xmlns:xlink="http://www.w3.org/1999/xlink" ><g id="svgg"><path id="path0" d="M192.459 50.193 C 191.654 50.294,190.363 50.343,189.589 50.304 C 188.752 50.261,188.182 50.323,188.182 50.458 C 188.182 50.596,187.334 50.665,185.988 50.636 C 184.781 50.611,183.641 50.648,183.455 50.719 C 183.270 50.789,182.560 50.903,181.880 50.971 C 181.199 51.039,180.338 51.141,179.966 51.199 C 179.595 51.257,178.025 51.466,176.477 51.665 C 167.246 52.851,158.694 55.188,158.694 56.526 C 158.694 56.759,158.606 56.950,158.498 56.950 C 158.390 56.950,158.235 57.456,158.153 58.075 C 158.071 58.694,157.917 59.201,157.812 59.201 C 157.706 59.201,157.496 59.859,157.344 60.664 C 157.192 61.469,156.984 62.127,156.882 62.127 C 156.780 62.127,156.628 62.583,156.544 63.140 C 156.461 63.697,156.323 64.153,156.238 64.153 C 156.153 64.153,155.953 64.786,155.793 65.559 C 155.633 66.333,155.415 67.019,155.308 67.085 C 155.201 67.151,154.985 67.886,154.827 68.718 C 154.669 69.550,154.473 70.231,154.391 70.231 C 154.309 70.231,154.176 70.585,154.095 71.019 C 154.013 71.452,153.843 71.806,153.716 71.806 C 153.589 71.806,153.637 71.958,153.823 72.144 C 154.008 72.330,154.260 72.482,154.383 72.482 C 154.505 72.482,154.639 72.558,154.680 72.651 C 154.812 72.947,157.165 74.120,158.458 74.534 C 159.145 74.754,159.492 74.939,159.228 74.946 C 158.684 74.959,156.388 74.129,154.334 73.175 C 151.933 72.061,150.845 71.581,150.716 71.581 C 150.648 71.581,149.993 71.116,149.261 70.548 C 147.697 69.333,147.200 69.326,146.919 70.514 C 146.809 70.977,146.641 71.356,146.545 71.356 C 146.449 71.356,146.310 71.660,146.235 72.032 C 146.161 72.403,145.895 73.157,145.644 73.707 C 145.394 74.258,145.189 74.865,145.189 75.058 C 145.189 75.250,145.094 75.408,144.980 75.408 C 144.865 75.408,144.646 75.965,144.494 76.646 C 144.341 77.327,144.139 77.884,144.045 77.884 C 143.951 77.884,143.803 78.213,143.717 78.616 C 143.631 79.018,143.436 79.600,143.283 79.910 C 142.707 81.080,142.288 82.067,142.138 82.611 C 141.994 83.136,141.551 84.215,140.783 85.909 C 140.606 86.299,140.458 86.755,140.454 86.922 C 140.450 87.089,140.250 87.631,140.011 88.126 C 139.772 88.621,139.573 89.204,139.569 89.420 C 139.564 89.637,139.468 89.814,139.354 89.814 C 139.240 89.814,139.076 90.144,138.990 90.546 C 138.904 90.948,138.703 91.531,138.542 91.840 C 138.382 92.150,138.129 92.757,137.981 93.191 C 137.833 93.624,137.579 94.282,137.415 94.654 C 136.785 96.087,136.454 96.926,136.304 97.468 C 136.123 98.124,135.611 99.366,135.190 100.169 C 135.028 100.478,134.829 101.010,134.748 101.351 C 134.667 101.691,134.506 101.970,134.390 101.970 C 134.274 101.970,134.113 102.324,134.031 102.757 C 133.950 103.191,133.807 103.545,133.713 103.545 C 133.619 103.545,133.414 104.001,133.258 104.558 C 133.102 105.115,132.908 105.571,132.826 105.571 C 132.743 105.571,132.554 106.027,132.405 106.584 C 132.256 107.141,132.033 107.597,131.909 107.597 C 131.784 107.597,131.683 107.843,131.683 108.144 C 131.683 108.444,131.533 108.840,131.350 109.023 C 131.167 109.206,130.892 109.821,130.740 110.390 C 130.588 110.959,130.392 111.424,130.303 111.424 C 130.215 111.424,130.076 111.728,129.994 112.099 C 129.913 112.470,129.774 112.774,129.686 112.774 C 129.597 112.774,129.403 113.230,129.254 113.787 C 129.105 114.344,128.892 114.800,128.780 114.800 C 128.668 114.800,128.455 115.307,128.306 115.926 C 128.158 116.545,127.953 117.051,127.851 117.051 C 127.750 117.051,127.600 117.355,127.518 117.727 C 127.437 118.098,127.298 118.402,127.209 118.402 C 127.121 118.402,126.927 118.858,126.778 119.415 C 126.629 119.972,126.405 120.428,126.281 120.428 C 126.157 120.428,126.055 120.674,126.055 120.974 C 126.055 121.275,125.905 121.671,125.722 121.854 C 125.539 122.037,125.265 122.652,125.113 123.221 C 124.961 123.789,124.764 124.254,124.676 124.254 C 124.587 124.254,124.448 124.558,124.367 124.930 C 124.285 125.301,124.146 125.605,124.058 125.605 C 123.970 125.605,123.776 126.061,123.627 126.618 C 123.478 127.175,123.264 127.631,123.152 127.631 C 123.040 127.631,122.827 128.137,122.679 128.756 C 122.530 129.375,122.322 129.882,122.216 129.882 C 122.110 129.882,121.957 130.236,121.876 130.670 C 121.795 131.103,121.654 131.458,121.564 131.458 C 121.473 131.458,121.278 131.863,121.130 132.358 C 120.981 132.853,120.763 133.258,120.644 133.258 C 120.525 133.258,120.428 133.504,120.428 133.805 C 120.428 134.106,120.278 134.501,120.095 134.685 C 119.912 134.868,119.637 135.483,119.485 136.051 C 119.333 136.620,119.137 137.085,119.048 137.085 C 118.960 137.085,118.821 137.389,118.739 137.760 C 118.658 138.132,118.519 138.436,118.431 138.436 C 118.342 138.436,118.148 138.891,117.999 139.449 C 117.850 140.006,117.637 140.461,117.525 140.461 C 117.413 140.461,117.200 140.968,117.051 141.587 C 116.903 142.206,116.695 142.712,116.589 142.712 C 116.483 142.712,116.330 143.067,116.249 143.500 C 116.167 143.934,116.027 144.288,115.936 144.288 C 115.846 144.288,115.650 144.693,115.502 145.189 C 115.354 145.684,115.146 146.089,115.041 146.089 C 114.936 146.089,114.784 146.443,114.703 146.877 C 114.621 147.310,114.468 147.665,114.362 147.665 C 114.256 147.665,114.048 148.171,113.900 148.790 C 113.751 149.409,113.547 149.916,113.445 149.916 C 113.343 149.916,113.194 150.219,113.112 150.591 C 113.030 150.962,112.893 151.266,112.806 151.266 C 112.719 151.266,112.513 151.722,112.348 152.279 C 112.184 152.836,111.969 153.292,111.872 153.292 C 111.774 153.292,111.572 153.799,111.424 154.418 C 111.275 155.037,111.067 155.543,110.961 155.543 C 110.855 155.543,110.702 155.898,110.621 156.331 C 110.540 156.764,110.399 157.119,110.309 157.119 C 110.219 157.119,110.011 157.524,109.848 158.019 C 109.685 158.514,109.477 158.920,109.387 158.920 C 109.297 158.920,109.156 159.274,109.075 159.707 C 108.994 160.141,108.841 160.495,108.735 160.495 C 108.629 160.495,108.421 161.002,108.272 161.621 C 108.124 162.240,107.922 162.746,107.824 162.746 C 107.726 162.746,107.582 162.999,107.505 163.309 C 107.427 163.618,107.264 163.872,107.143 163.872 C 107.021 163.872,106.922 164.070,106.922 164.311 C 106.922 164.755,106.482 165.915,106.234 166.123 C 106.161 166.185,105.968 166.716,105.807 167.304 C 105.645 167.893,105.429 168.374,105.327 168.374 C 105.225 168.374,105.075 168.728,104.994 169.162 C 104.912 169.595,104.772 169.949,104.682 169.949 C 104.592 169.949,104.384 170.355,104.221 170.850 C 104.057 171.345,103.850 171.750,103.759 171.750 C 103.669 171.750,103.529 172.105,103.448 172.538 C 103.366 172.971,103.213 173.326,103.107 173.326 C 103.002 173.326,102.793 173.832,102.645 174.451 C 102.496 175.070,102.296 175.577,102.199 175.577 C 101.859 175.577,101.806 176.419,102.101 177.121 C 102.264 177.510,102.347 177.828,102.284 177.828 C 102.221 177.828,102.327 178.053,102.520 178.328 C 102.712 178.603,102.870 178.985,102.870 179.176 C 102.870 179.366,103.073 179.901,103.320 180.363 C 103.568 180.825,103.770 181.383,103.770 181.604 C 103.770 181.824,103.933 182.236,104.131 182.519 C 104.329 182.803,104.434 183.092,104.364 183.162 C 104.294 183.232,104.385 183.501,104.566 183.760 C 104.748 184.019,104.896 184.359,104.896 184.517 C 104.896 184.806,105.410 185.479,106.520 186.642 C 106.857 186.994,107.096 187.282,107.052 187.282 C 107.009 187.282,107.772 188.092,108.748 189.081 C 109.725 190.071,110.523 191.021,110.523 191.194 C 110.523 191.366,110.772 191.670,111.075 191.869 C 111.379 192.068,112.113 192.753,112.707 193.391 C 113.301 194.029,114.116 194.893,114.519 195.310 C 114.921 195.727,115.250 196.168,115.250 196.290 C 115.250 196.412,115.397 196.511,115.577 196.511 C 115.756 196.511,115.984 196.644,116.083 196.806 C 116.182 196.968,116.593 197.233,116.995 197.396 C 117.397 197.558,117.727 197.780,117.727 197.889 C 117.727 197.998,117.882 198.087,118.071 198.087 C 118.261 198.087,118.472 198.232,118.540 198.411 C 118.609 198.589,118.967 198.801,119.336 198.882 C 119.706 198.963,120.060 199.166,120.124 199.332 C 120.188 199.499,120.542 199.701,120.912 199.782 C 121.281 199.864,121.638 200.072,121.705 200.246 C 121.772 200.420,121.971 200.563,122.147 200.563 C 122.323 200.563,122.524 200.708,122.592 200.887 C 122.660 201.065,123.012 201.275,123.373 201.355 C 123.734 201.434,124.029 201.591,124.029 201.703 C 124.029 201.815,124.358 202.063,124.761 202.254 C 125.600 202.652,126.467 203.139,126.956 203.489 C 127.351 203.772,128.188 204.255,128.981 204.657 C 129.291 204.814,129.625 205.071,129.724 205.229 C 129.823 205.386,130.051 205.515,130.231 205.515 C 130.410 205.515,130.557 205.610,130.557 205.725 C 130.557 205.841,130.912 206.064,131.345 206.221 C 131.778 206.378,132.133 206.578,132.133 206.666 C 132.133 206.754,132.538 206.894,133.033 206.978 C 133.528 207.062,133.934 207.212,133.934 207.313 C 133.934 207.414,134.465 207.622,135.115 207.776 C 135.765 207.930,136.358 208.150,136.432 208.264 C 136.507 208.378,136.709 208.497,136.882 208.528 C 137.863 208.704,138.788 208.967,138.886 209.098 C 138.948 209.180,139.353 209.364,139.786 209.506 C 142.306 210.335,142.890 210.539,143.500 210.802 C 143.872 210.962,144.557 211.255,145.023 211.453 C 145.489 211.651,146.274 211.878,146.767 211.957 C 147.261 212.036,147.665 212.178,147.665 212.274 C 147.665 212.370,148.450 212.704,149.409 213.016 C 150.369 213.329,151.466 213.743,151.848 213.937 C 152.230 214.131,153.142 214.389,153.874 214.510 C 156.045 214.869,158.527 215.363,159.370 215.605 C 159.803 215.730,160.867 215.901,161.733 215.986 C 162.600 216.071,163.410 216.206,163.534 216.286 C 163.739 216.419,166.519 216.920,167.941 217.080 C 168.260 217.116,168.614 217.201,168.729 217.270 C 168.843 217.338,169.570 217.466,170.344 217.554 C 171.118 217.642,171.800 217.794,171.860 217.891 C 171.920 217.988,172.730 218.138,173.660 218.225 C 174.591 218.313,175.352 218.454,175.352 218.541 C 175.352 218.627,175.605 218.718,175.914 218.744 C 176.583 218.799,176.673 218.355,176.027 218.186 C 175.756 218.115,175.575 217.877,175.573 217.588 C 175.564 216.392,176.131 210.917,176.264 210.917 C 176.346 210.917,176.547 209.347,176.709 207.428 C 176.872 205.509,177.080 203.939,177.171 203.939 C 177.261 203.939,177.408 202.977,177.496 201.801 C 177.584 200.625,177.732 199.662,177.824 199.662 C 177.916 199.662,178.061 198.776,178.147 197.693 C 178.233 196.609,178.441 194.710,178.610 193.472 C 178.779 192.234,178.980 189.955,179.056 188.407 C 179.133 186.860,179.297 184.783,179.420 183.793 C 179.544 182.802,179.795 179.662,179.979 176.815 C 180.374 170.688,180.679 166.762,180.974 163.984 C 181.093 162.870,181.298 160.287,181.430 158.244 C 181.561 156.201,181.773 153.720,181.900 152.729 C 182.027 151.739,182.278 148.903,182.458 146.427 C 182.809 141.587,183.097 138.389,183.470 135.172 C 183.599 134.057,183.853 131.373,184.033 129.207 C 184.213 127.040,184.501 123.900,184.673 122.228 C 184.845 120.557,185.147 117.366,185.345 115.138 C 185.543 112.909,185.805 110.377,185.928 109.510 C 186.050 108.644,186.255 106.517,186.383 104.783 C 186.511 103.050,186.716 101.075,186.840 100.394 C 186.963 99.713,187.160 98.092,187.277 96.792 C 187.482 94.529,188.093 88.716,188.689 83.353 C 188.844 81.966,189.071 80.733,189.195 80.613 C 189.330 80.481,193.557 80.344,199.775 80.268 C 205.470 80.199,211.661 80.079,213.534 80.002 C 217.322 79.846,217.110 79.764,217.470 81.525 C 217.605 82.184,217.812 83.129,217.930 83.624 C 218.048 84.119,218.227 84.930,218.327 85.425 C 218.427 85.920,218.607 86.579,218.728 86.888 C 218.848 87.198,219.073 88.210,219.227 89.139 C 219.382 90.068,219.598 90.997,219.707 91.205 C 219.816 91.414,219.974 92.249,220.057 93.063 C 220.140 93.876,220.282 94.541,220.372 94.541 C 220.461 94.541,220.664 95.808,220.822 97.355 C 220.979 98.903,221.182 100.169,221.272 100.169 C 221.362 100.169,221.564 101.435,221.722 102.983 C 221.880 104.530,222.086 105.796,222.180 105.796 C 222.274 105.796,222.424 106.632,222.513 107.653 C 222.603 108.675,222.754 109.561,222.850 109.623 C 222.945 109.685,223.157 111.027,223.319 112.606 C 223.482 114.184,223.685 115.476,223.770 115.476 C 223.856 115.476,223.997 116.387,224.086 117.501 C 224.174 118.616,224.321 119.527,224.413 119.527 C 224.505 119.527,224.712 120.895,224.873 122.566 C 225.035 124.237,225.241 125.605,225.331 125.605 C 225.421 125.605,225.568 126.491,225.657 127.575 C 225.746 128.658,225.899 129.645,225.995 129.769 C 226.092 129.893,226.303 131.387,226.464 133.089 C 226.625 134.792,226.822 136.185,226.902 136.185 C 226.981 136.185,227.180 137.628,227.344 139.392 C 227.507 141.156,227.711 142.651,227.796 142.712 C 227.953 142.826,228.146 144.275,228.849 150.591 C 229.062 152.510,229.307 154.131,229.392 154.192 C 229.477 154.254,229.620 155.343,229.710 156.612 C 229.800 157.881,229.947 158.920,230.036 158.920 C 230.125 158.920,230.330 160.515,230.492 162.465 C 230.654 164.415,230.860 166.111,230.951 166.235 C 231.042 166.359,231.246 168.081,231.406 170.062 C 231.565 172.043,231.773 173.765,231.867 173.889 C 231.962 174.013,232.112 175.203,232.201 176.534 C 232.290 177.865,232.432 178.953,232.517 178.953 C 232.601 178.953,232.805 180.777,232.971 183.005 C 233.136 185.234,233.347 187.057,233.439 187.057 C 233.532 187.057,233.680 188.247,233.769 189.702 C 233.857 191.156,234.005 192.448,234.097 192.572 C 234.189 192.696,234.394 194.671,234.553 196.961 C 234.711 199.252,234.916 201.227,235.007 201.351 C 235.098 201.474,235.242 202.741,235.328 204.164 C 235.413 205.588,235.573 207.057,235.684 207.428 C 235.794 207.800,236.021 209.949,236.187 212.204 C 236.475 216.115,236.634 216.954,236.985 216.394 C 237.071 216.256,237.926 216.017,238.886 215.863 C 239.845 215.709,240.630 215.508,240.630 215.417 C 240.630 215.326,241.137 215.185,241.756 215.103 C 242.375 215.021,242.881 214.872,242.881 214.772 C 242.881 214.673,243.742 214.457,244.795 214.294 C 245.847 214.130,246.708 213.921,246.708 213.828 C 246.708 213.736,247.214 213.591,247.833 213.506 C 248.452 213.421,249.012 213.264,249.078 213.157 C 249.144 213.050,249.348 213.020,249.532 213.091 C 249.715 213.161,249.990 213.115,250.144 212.989 C 250.297 212.863,250.903 212.689,251.491 212.601 C 252.079 212.513,252.560 212.364,252.560 212.268 C 252.560 212.173,253.118 212.025,253.799 211.940 C 254.479 211.855,255.037 211.701,255.037 211.597 C 255.037 211.494,255.240 211.463,255.488 211.528 C 255.736 211.593,256.065 211.544,256.220 211.420 C 256.374 211.296,256.829 211.124,257.231 211.038 C 257.634 210.952,257.963 210.804,257.963 210.710 C 257.963 210.616,258.368 210.405,258.863 210.242 C 259.358 210.079,259.764 209.864,259.764 209.766 C 259.764 209.668,260.118 209.521,260.551 209.439 C 260.985 209.358,261.339 209.217,261.339 209.127 C 261.339 209.037,261.745 208.841,262.240 208.693 C 262.735 208.545,263.140 208.334,263.140 208.225 C 263.140 208.116,263.444 207.960,263.815 207.878 C 264.187 207.797,264.491 207.631,264.491 207.510 C 264.491 207.388,264.581 207.345,264.692 207.414 C 264.803 207.482,265.183 207.388,265.537 207.203 C 265.890 207.019,266.306 206.868,266.460 206.867 C 266.615 206.866,266.742 206.766,266.742 206.645 C 266.742 206.523,266.995 206.360,267.304 206.283 C 267.614 206.205,267.867 206.061,267.867 205.963 C 267.867 205.865,268.374 205.663,268.993 205.515 C 269.612 205.366,270.118 205.170,270.118 205.078 C 270.118 204.987,270.523 204.778,271.019 204.615 C 271.514 204.451,271.919 204.232,271.919 204.128 C 271.919 204.024,272.046 203.939,272.200 203.938 C 272.355 203.937,272.750 203.796,273.079 203.625 C 273.407 203.453,274.041 203.193,274.486 203.046 C 274.931 202.899,275.295 202.696,275.295 202.596 C 275.295 202.495,275.523 202.353,275.802 202.281 C 276.080 202.209,276.707 201.793,277.193 201.357 C 277.680 200.920,278.159 200.563,278.259 200.563 C 278.414 200.563,278.983 200.075,280.492 198.649 C 280.688 198.463,280.961 198.312,281.099 198.312 C 281.238 198.312,281.432 198.182,281.531 198.023 C 281.630 197.864,282.268 197.340,282.949 196.858 C 283.630 196.377,284.389 195.795,284.637 195.565 C 285.503 194.760,286.439 194.035,286.614 194.035 C 286.711 194.035,287.069 193.750,287.409 193.403 C 287.748 193.055,288.201 192.704,288.414 192.622 C 288.627 192.540,288.801 192.376,288.801 192.256 C 288.801 192.137,289.005 191.975,289.254 191.896 C 289.503 191.817,289.871 191.430,290.072 191.036 C 290.273 190.643,290.576 190.240,290.745 190.141 C 290.914 190.042,291.052 189.860,291.052 189.738 C 291.052 189.480,291.984 188.106,292.234 187.995 C 292.327 187.953,292.403 187.773,292.403 187.594 C 292.403 187.414,292.548 187.212,292.726 187.144 C 292.904 187.075,293.000 186.889,292.939 186.730 C 292.877 186.570,292.985 186.379,293.178 186.305 C 293.371 186.231,293.528 186.015,293.528 185.826 C 293.528 185.636,293.631 185.481,293.757 185.481 C 293.883 185.481,294.155 185.127,294.362 184.693 C 294.568 184.260,294.820 183.905,294.921 183.905 C 295.022 183.905,295.104 183.750,295.104 183.561 C 295.104 183.371,295.256 183.158,295.442 183.086 C 295.627 183.015,295.779 182.813,295.779 182.636 C 295.779 182.460,295.931 182.257,296.117 182.186 C 296.303 182.115,296.455 181.928,296.455 181.771 C 296.455 181.613,296.609 181.356,296.798 181.200 C 296.986 181.043,297.093 180.867,297.034 180.808 C 296.975 180.749,297.073 180.553,297.253 180.374 C 297.433 180.194,297.580 179.801,297.580 179.500 C 297.580 179.199,297.690 178.953,297.823 178.953 C 297.974 178.953,298.012 178.706,297.923 178.299 C 297.840 177.924,297.881 177.583,298.017 177.498 C 298.148 177.417,298.255 177.008,298.255 176.590 C 298.255 176.171,298.353 175.768,298.473 175.694 C 298.593 175.620,298.631 175.259,298.558 174.893 C 298.469 174.449,298.515 174.226,298.695 174.226 C 298.878 174.226,298.919 174.012,298.823 173.572 C 298.741 173.197,298.781 172.856,298.918 172.771 C 299.049 172.690,299.156 172.275,299.156 171.849 C 299.156 171.423,299.237 171.075,299.336 171.075 C 299.435 171.075,299.474 170.720,299.424 170.287 C 299.373 169.854,299.426 169.499,299.541 169.499 C 299.817 169.499,299.434 166.260,299.146 166.160 C 299.028 166.119,298.931 165.895,298.931 165.662 C 298.931 165.206,298.338 163.613,297.427 161.625 C 297.114 160.942,296.252 159.015,295.510 157.344 C 294.768 155.672,293.975 153.900,293.747 153.405 C 293.519 152.909,292.002 149.516,290.376 145.864 C 288.749 142.212,287.122 138.590,286.759 137.816 C 286.397 137.042,286.100 136.361,286.100 136.303 C 286.100 136.244,285.857 135.662,285.559 135.009 C 284.160 131.937,283.794 131.124,282.389 127.968 C 281.562 126.111,280.641 124.066,280.342 123.424 C 280.042 122.782,279.797 122.208,279.797 122.149 C 279.797 122.090,279.291 120.971,278.672 119.662 C 278.053 118.353,277.546 117.225,277.546 117.156 C 277.546 117.087,277.206 116.301,276.789 115.409 C 276.373 114.517,275.705 113.028,275.304 112.099 C 274.904 111.171,274.340 109.904,274.051 109.285 C 272.900 106.820,271.019 102.614,271.019 102.507 C 271.019 102.407,269.107 98.134,267.404 94.429 C 267.062 93.686,266.510 92.470,266.177 91.728 C 264.792 88.638,263.498 85.786,262.858 84.412 C 262.483 83.607,261.928 82.392,261.624 81.711 C 261.321 81.030,260.837 79.966,260.550 79.347 C 260.263 78.728,259.522 77.107,258.904 75.746 C 258.286 74.384,257.353 72.358,256.831 71.244 C 256.309 70.129,255.591 68.577,255.236 67.794 L 254.590 66.369 253.356 67.794 C 252.678 68.577,252.120 69.350,252.117 69.511 C 252.113 69.672,251.781 69.957,251.379 70.145 C 250.612 70.503,249.872 70.925,247.611 72.296 C 246.861 72.751,245.920 73.194,245.520 73.279 C 245.121 73.364,244.541 73.566,244.232 73.728 C 243.638 74.038,242.025 74.593,240.518 75.007 C 240.023 75.143,239.418 75.390,239.173 75.556 C 238.929 75.722,238.423 75.853,238.048 75.847 C 237.487 75.838,237.625 75.737,238.829 75.276 C 241.363 74.306,242.182 73.832,241.325 73.832 C 241.212 73.832,241.052 73.427,240.968 72.932 C 240.884 72.437,240.731 72.032,240.627 72.032 C 240.523 72.032,240.313 71.474,240.160 70.793 C 240.008 70.113,239.803 69.555,239.704 69.555 C 239.606 69.555,239.459 69.201,239.377 68.768 C 239.296 68.334,239.156 67.980,239.065 67.980 C 238.975 67.980,238.776 67.423,238.624 66.742 C 238.472 66.061,238.262 65.504,238.158 65.504 C 238.054 65.504,237.900 65.098,237.817 64.603 C 237.733 64.108,237.579 63.703,237.475 63.703 C 237.371 63.703,237.161 63.146,237.009 62.465 C 236.857 61.784,236.658 61.227,236.568 61.227 C 236.478 61.227,236.342 60.923,236.266 60.551 C 236.190 60.180,236.066 59.572,235.990 59.201 C 235.914 58.829,235.771 58.526,235.672 58.526 C 235.573 58.526,235.424 58.120,235.340 57.625 C 235.257 57.130,235.106 56.725,235.005 56.725 C 234.905 56.725,234.696 56.193,234.541 55.543 C 234.064 53.547,233.467 53.306,226.037 52.106 C 224.881 51.919,223.514 51.669,222.998 51.550 C 222.482 51.431,221.494 51.331,220.803 51.328 C 220.112 51.325,219.483 51.259,219.405 51.181 C 219.327 51.104,218.527 51.006,217.625 50.964 C 216.724 50.922,215.958 50.800,215.922 50.693 C 215.887 50.586,215.307 50.544,214.634 50.600 C 213.960 50.656,213.229 50.620,213.008 50.521 C 212.786 50.422,211.339 50.320,209.792 50.294 C 208.244 50.268,204.041 50.193,200.450 50.129 C 196.860 50.064,193.264 50.093,192.459 50.193 M162.461 75.768 C 162.319 75.911,160.720 75.575,160.720 75.402 C 160.720 75.308,161.129 75.335,161.629 75.461 C 162.128 75.588,162.503 75.726,162.461 75.768 M164.978 76.453 C 165.204 76.647,164.176 76.504,163.872 76.298 C 163.625 76.131,163.716 76.110,164.209 76.221 C 164.581 76.304,164.927 76.408,164.978 76.453 M186.213 79.619 C 185.934 79.672,185.478 79.672,185.200 79.619 C 184.921 79.565,185.149 79.521,185.706 79.521 C 186.263 79.521,186.491 79.565,186.213 79.619 M215.926 79.623 C 215.523 79.673,214.865 79.673,214.463 79.623 C 214.060 79.573,214.389 79.532,215.194 79.532 C 215.999 79.532,216.328 79.573,215.926 79.623 M235.228 216.545 C 235.228 216.809,235.401 216.809,236.016 216.545 C 236.415 216.373,236.395 216.349,235.847 216.335 C 235.506 216.327,235.228 216.421,235.228 216.545 M234.102 216.770 C 234.102 216.894,233.855 216.995,233.553 216.995 C 233.251 216.995,232.937 217.103,232.856 217.234 C 232.639 217.584,234.359 217.244,234.770 216.856 C 235.056 216.586,235.034 216.545,234.601 216.545 C 234.327 216.545,234.102 216.646,234.102 216.770 M230.388 217.445 C 229.779 217.707,231.035 217.707,231.851 217.445 C 232.363 217.281,232.343 217.264,231.626 217.258 C 231.193 217.255,230.636 217.339,230.388 217.445 M225.098 218.120 C 224.842 218.286,224.937 218.339,225.492 218.342 C 225.895 218.344,226.224 218.244,226.224 218.120 C 226.224 217.835,225.541 217.835,225.098 218.120 M176.819 218.564 C 176.664 218.815,177.771 219.152,178.001 218.923 C 178.172 218.752,177.632 218.354,177.222 218.349 C 177.075 218.347,176.893 218.444,176.819 218.564 M221.947 218.574 C 221.710 218.729,221.843 218.752,222.397 218.651 C 223.368 218.472,223.551 218.344,222.829 218.349 C 222.530 218.351,222.133 218.452,221.947 218.574 M219.133 218.796 C 219.054 218.924,219.248 219.021,219.584 219.021 C 219.919 219.021,220.113 218.924,220.034 218.796 C 219.957 218.672,219.755 218.571,219.584 218.571 C 219.412 218.571,219.210 218.672,219.133 218.796 M178.503 219.021 C 178.689 219.141,179.550 219.229,180.416 219.216 C 181.613 219.198,181.830 219.151,181.317 219.021 C 180.276 218.756,178.093 218.756,178.503 219.021 M184.641 219.381 C 184.903 219.643,188.858 219.744,188.858 219.489 C 188.858 219.332,188.089 219.246,186.682 219.246 C 185.485 219.246,184.566 219.307,184.641 219.381 M213.168 219.471 C 213.168 219.595,213.365 219.696,213.605 219.696 C 213.845 219.696,214.105 219.595,214.181 219.471 C 214.260 219.343,214.071 219.246,213.744 219.246 C 213.427 219.246,213.168 219.347,213.168 219.471 M193.528 219.855 C 193.807 219.909,194.263 219.909,194.541 219.855 C 194.820 219.801,194.592 219.757,194.035 219.757 C 193.478 219.757,193.250 219.801,193.528 219.855 M201.632 220.080 C 201.911 220.134,202.366 220.134,202.645 220.080 C 202.923 220.026,202.696 219.983,202.138 219.983 C 201.581 219.983,201.353 220.026,201.632 220.080 " stroke="none" fill="#4e8d86" fill-rule="evenodd"></path><path id="path1" d="M199.818 81.317 C 199.576 82.815,199.020 87.306,198.780 89.702 C 198.158 95.899,197.875 99.105,197.755 101.294 C 197.684 102.594,197.527 105.380,197.406 107.485 C 196.987 114.809,196.513 128.224,196.511 132.808 C 196.509 135.346,196.412 137.777,196.294 138.210 C 196.176 138.644,195.969 140.011,195.833 141.249 C 195.697 142.487,195.489 144.311,195.372 145.301 C 195.009 148.367,194.703 151.279,194.487 153.729 C 194.372 155.021,194.178 156.794,194.054 157.668 C 193.931 158.542,193.722 160.625,193.591 162.296 C 193.338 165.520,193.052 168.869,192.668 173.101 C 192.405 175.989,192.124 180.160,191.773 186.382 C 191.306 194.645,191.130 199.029,190.900 208.104 C 190.771 213.180,190.612 217.712,190.547 218.177 C 190.455 218.832,190.504 219.021,190.768 219.021 C 190.955 219.021,191.109 219.173,191.109 219.359 C 191.109 219.651,191.511 219.678,193.989 219.552 C 195.969 219.452,197.019 219.486,197.347 219.662 C 198.028 220.026,209.237 220.063,209.671 219.703 C 209.878 219.531,210.348 219.493,211.018 219.594 C 211.605 219.682,212.167 219.653,212.326 219.527 C 212.643 219.276,214.973 218.961,216.657 218.941 C 217.276 218.934,217.833 218.857,217.895 218.771 C 218.051 218.553,219.866 218.440,220.062 218.636 C 220.337 218.912,220.822 218.810,220.822 218.477 C 220.822 218.301,220.948 218.116,221.103 218.064 C 221.751 217.849,221.601 194.014,220.809 171.300 C 220.435 160.568,219.726 154.028,217.077 136.860 C 216.762 134.817,216.419 132.538,216.315 131.795 C 215.787 128.015,213.730 115.817,212.177 107.259 C 211.637 104.284,209.817 95.310,209.255 92.853 C 209.085 92.110,208.674 90.287,208.342 88.801 C 208.011 87.316,207.658 85.847,207.559 85.537 C 207.197 84.405,206.642 82.474,206.410 81.542 L 206.173 80.585 203.055 80.585 L 199.937 80.585 199.818 81.317 " stroke="none" fill="#d0f4f1" fill-rule="evenodd"></path><path id="path2" d="M201.305 80.360 C 197.666 80.427,195.097 80.564,194.972 80.698 C 194.856 80.822,194.640 83.658,194.492 87.001 C 194.344 90.343,194.136 94.800,194.030 96.905 C 193.924 99.010,193.830 102.403,193.821 104.446 C 193.805 108.470,193.500 113.593,193.139 115.926 C 192.682 118.883,192.249 121.942,192.008 123.917 C 191.872 125.031,191.671 126.652,191.562 127.518 C 191.452 128.385,191.250 130.107,191.112 131.345 C 190.974 132.583,190.719 134.660,190.545 135.959 C 190.372 137.259,190.119 139.488,189.983 140.912 C 189.847 142.335,189.646 144.311,189.535 145.301 C 189.424 146.292,189.229 148.165,189.102 149.465 C 188.975 150.765,188.720 153.348,188.535 155.205 C 188.147 159.099,187.845 162.493,187.505 166.798 C 187.373 168.469,187.120 171.559,186.944 173.663 C 186.476 179.237,185.892 188.264,185.487 196.173 C 185.361 198.649,185.103 203.461,184.915 206.866 C 184.728 210.270,184.576 214.387,184.577 216.014 L 184.581 218.972 187.055 219.133 C 188.416 219.222,189.473 219.385,189.405 219.496 C 189.337 219.606,189.692 219.696,190.195 219.696 C 190.857 219.696,191.109 219.603,191.109 219.358 C 191.109 219.173,190.955 219.021,190.768 219.021 C 190.504 219.021,190.455 218.832,190.547 218.177 C 190.612 217.712,190.771 213.180,190.900 208.104 C 191.130 199.029,191.306 194.645,191.773 186.382 C 192.124 180.160,192.405 175.989,192.668 173.101 C 193.052 168.869,193.338 165.520,193.591 162.296 C 193.722 160.625,193.931 158.542,194.054 157.668 C 194.178 156.794,194.372 155.021,194.487 153.729 C 194.703 151.279,195.009 148.367,195.372 145.301 C 195.489 144.311,195.697 142.487,195.833 141.249 C 195.969 140.011,196.176 138.644,196.294 138.210 C 196.412 137.777,196.509 135.346,196.511 132.808 C 196.513 128.224,196.987 114.809,197.406 107.485 C 197.527 105.380,197.684 102.594,197.755 101.294 C 197.875 99.105,198.158 95.899,198.780 89.702 C 199.020 87.306,199.576 82.815,199.818 81.317 L 199.937 80.585 203.055 80.585 L 206.173 80.585 206.410 81.542 C 206.642 82.474,207.197 84.405,207.559 85.537 C 207.658 85.847,208.011 87.316,208.342 88.801 C 208.674 90.287,209.085 92.110,209.255 92.853 C 209.817 95.310,211.637 104.284,212.177 107.259 C 213.730 115.817,215.787 128.015,216.315 131.795 C 216.419 132.538,216.762 134.817,217.077 136.860 C 219.726 154.028,220.435 160.568,220.809 171.300 C 221.601 194.014,221.751 217.849,221.103 218.064 C 220.706 218.197,220.752 218.796,221.159 218.796 C 221.345 218.796,221.497 218.694,221.497 218.571 C 221.497 218.447,221.983 218.346,222.577 218.346 C 223.172 218.346,223.769 218.234,223.905 218.098 C 224.047 217.957,224.688 217.885,225.406 217.929 C 226.482 217.997,226.694 217.943,226.904 217.549 C 227.329 216.754,227.082 189.602,226.621 186.382 C 226.417 184.958,226.037 181.919,225.777 179.629 C 225.517 177.338,225.158 174.350,224.979 172.988 C 224.801 171.626,224.556 169.600,224.435 168.486 C 224.314 167.372,224.005 164.840,223.748 162.859 C 223.491 160.878,222.934 156.522,222.511 153.180 C 222.087 149.837,221.485 145.279,221.172 143.050 C 220.859 140.822,220.549 138.542,220.483 137.985 C 220.325 136.658,219.759 132.768,219.353 130.219 C 219.175 129.105,218.929 127.434,218.805 126.505 C 218.248 122.334,217.010 114.177,215.986 107.935 C 215.803 106.820,215.242 103.376,214.738 100.281 C 214.234 97.186,213.726 94.198,213.608 93.641 C 213.490 93.084,213.230 91.666,213.030 90.490 C 212.830 89.313,212.538 87.642,212.380 86.775 C 212.223 85.909,211.928 84.214,211.725 83.010 C 211.204 79.913,211.395 80.131,209.262 80.193 C 208.253 80.223,204.673 80.298,201.305 80.360 M217.895 218.796 C 217.895 218.920,218.098 219.021,218.346 219.021 C 218.593 219.021,218.796 218.920,218.796 218.796 C 218.796 218.672,218.593 218.571,218.346 218.571 C 218.098 218.571,217.895 218.672,217.895 218.796 M215.194 219.028 C 214.831 219.150,215.070 219.171,215.869 219.088 C 216.550 219.018,217.150 218.923,217.201 218.878 C 217.382 218.720,215.752 218.842,215.194 219.028 M195.048 219.583 C 195.589 219.768,197.651 219.844,197.374 219.668 C 197.209 219.564,196.567 219.484,195.948 219.492 C 195.329 219.500,194.924 219.541,195.048 219.583 M209.704 219.655 C 209.642 219.757,209.889 219.796,210.254 219.742 C 210.619 219.689,210.917 219.606,210.917 219.558 C 210.917 219.386,209.816 219.475,209.704 219.655 " stroke="none" fill="#9dd0ca" fill-rule="evenodd"></path><path id="path3" d="M200.113 49.747 C 200.113 49.877,200.825 49.972,201.801 49.972 C 202.776 49.972,203.489 49.877,203.489 49.747 C 203.489 49.617,202.776 49.522,201.801 49.522 C 200.825 49.522,200.113 49.617,200.113 49.747 M188.971 50.199 C 189.104 50.413,193.566 50.289,193.791 50.065 C 193.843 50.014,192.748 49.972,191.358 49.972 C 189.715 49.972,188.880 50.051,188.971 50.199 M206.303 50.207 C 207.978 50.468,211.367 50.461,211.367 50.197 C 211.367 50.056,210.206 49.983,208.272 50.002 C 205.898 50.025,205.439 50.073,206.303 50.207 M184.131 50.422 C 184.131 50.555,184.956 50.647,186.156 50.647 C 187.357 50.647,188.182 50.555,188.182 50.422 C 188.182 50.289,187.357 50.197,186.156 50.197 C 184.956 50.197,184.131 50.289,184.131 50.422 M212.831 50.422 C 212.907 50.546,213.521 50.647,214.194 50.647 C 214.868 50.647,215.419 50.546,215.419 50.422 C 215.419 50.297,214.815 50.197,214.055 50.197 C 213.203 50.197,212.744 50.281,212.831 50.422 M180.754 50.623 C 180.754 50.733,179.640 50.896,178.278 50.985 C 176.916 51.074,175.802 51.237,175.802 51.347 C 175.802 51.457,175.441 51.548,175.001 51.548 C 173.686 51.548,169.949 52.057,169.949 52.236 C 169.949 52.327,169.240 52.473,168.374 52.560 C 167.507 52.648,166.798 52.791,166.798 52.880 C 166.798 52.969,165.919 53.159,164.845 53.303 C 163.770 53.446,162.832 53.660,162.759 53.778 C 162.686 53.896,161.944 54.111,161.111 54.256 C 160.277 54.401,159.595 54.607,159.595 54.714 C 159.595 54.821,159.088 54.976,158.469 55.058 C 157.850 55.140,157.344 55.279,157.344 55.367 C 157.344 55.455,156.787 55.661,156.106 55.824 C 155.425 55.988,154.868 56.198,154.868 56.293 C 154.868 56.387,154.564 56.531,154.192 56.612 C 153.821 56.694,153.517 56.854,153.517 56.969 C 153.517 57.083,153.061 57.299,152.504 57.448 C 151.947 57.597,151.491 57.799,151.491 57.897 C 151.491 57.995,151.344 58.075,151.165 58.075 C 150.985 58.075,150.757 58.204,150.658 58.362 C 150.559 58.519,150.200 58.770,149.859 58.919 C 149.519 59.069,149.240 59.295,149.240 59.421 C 149.240 59.548,149.106 59.651,148.942 59.651 C 148.778 59.651,148.406 59.904,148.115 60.214 C 147.824 60.523,147.502 60.777,147.400 60.777 C 146.988 60.777,146.379 61.655,146.100 62.649 C 145.938 63.229,145.733 63.703,145.645 63.703 C 145.558 63.703,145.352 64.108,145.189 64.603 C 145.025 65.098,144.811 65.504,144.712 65.504 C 144.614 65.504,144.467 65.858,144.386 66.292 C 144.305 66.725,144.164 67.079,144.074 67.079 C 143.983 67.079,143.788 67.485,143.639 67.980 C 143.491 68.475,143.280 68.880,143.171 68.880 C 143.062 68.880,142.907 69.184,142.825 69.555 C 142.743 69.927,142.603 70.231,142.512 70.231 C 142.421 70.231,142.218 70.737,142.059 71.356 C 141.900 71.975,141.678 72.482,141.565 72.482 C 141.452 72.482,141.238 72.938,141.089 73.495 C 140.940 74.052,140.746 74.508,140.658 74.508 C 140.569 74.508,140.430 74.811,140.349 75.183 C 140.267 75.554,140.128 75.858,140.039 75.858 C 139.842 75.858,139.336 77.206,139.336 77.731 C 139.336 77.939,139.237 78.109,139.115 78.109 C 138.994 78.109,138.831 78.362,138.753 78.672 C 138.675 78.981,138.535 79.235,138.440 79.235 C 138.346 79.235,138.141 79.690,137.985 80.248 C 137.829 80.805,137.614 81.261,137.506 81.261 C 137.398 81.261,137.310 81.407,137.310 81.586 C 137.310 81.765,137.057 82.388,136.747 82.970 C 136.438 83.553,136.185 84.166,136.185 84.333 C 136.185 84.500,136.102 84.637,136.002 84.637 C 135.902 84.637,135.690 85.144,135.531 85.763 C 135.372 86.382,135.153 86.888,135.043 86.888 C 134.933 86.888,134.779 87.141,134.701 87.451 C 134.624 87.760,134.480 88.014,134.382 88.014 C 134.284 88.014,134.082 88.520,133.934 89.139 C 133.785 89.758,133.583 90.264,133.485 90.264 C 133.387 90.264,133.244 90.518,133.166 90.827 C 133.088 91.137,132.935 91.390,132.826 91.390 C 132.717 91.390,132.506 91.896,132.358 92.515 C 132.209 93.134,132.005 93.641,131.903 93.641 C 131.802 93.641,131.652 93.945,131.570 94.316 C 131.488 94.688,131.333 94.992,131.224 94.992 C 131.115 94.992,130.900 95.422,130.746 95.948 C 130.592 96.474,130.400 96.956,130.319 97.017 C 130.238 97.079,130.041 97.532,129.880 98.024 C 129.720 98.516,129.452 99.055,129.285 99.222 C 129.118 99.389,128.981 99.772,128.981 100.072 C 128.981 100.373,128.884 100.619,128.765 100.619 C 128.647 100.619,128.428 101.024,128.280 101.519 C 128.131 102.015,127.929 102.420,127.831 102.420 C 127.732 102.420,127.585 102.774,127.503 103.208 C 127.422 103.641,127.282 103.995,127.192 103.995 C 127.101 103.995,126.894 104.401,126.730 104.896 C 126.567 105.391,126.356 105.796,126.262 105.796 C 126.168 105.796,126.024 106.100,125.943 106.472 C 125.861 106.843,125.720 107.147,125.630 107.147 C 125.539 107.147,125.335 107.653,125.177 108.272 C 125.018 108.891,124.796 109.398,124.683 109.398 C 124.570 109.398,124.356 109.854,124.207 110.411 C 124.058 110.968,123.864 111.424,123.775 111.424 C 123.687 111.424,123.548 111.728,123.467 112.099 C 123.385 112.470,123.241 112.774,123.147 112.774 C 123.053 112.774,122.842 113.180,122.679 113.675 C 122.515 114.170,122.308 114.575,122.217 114.575 C 122.127 114.575,121.987 114.930,121.906 115.363 C 121.824 115.796,121.677 116.151,121.579 116.151 C 121.480 116.151,121.278 116.556,121.130 117.051 C 120.981 117.546,120.763 117.952,120.644 117.952 C 120.525 117.952,120.428 118.198,120.428 118.498 C 120.428 118.799,120.291 119.182,120.124 119.349 C 119.957 119.516,119.689 120.055,119.529 120.546 C 119.368 121.038,119.171 121.491,119.090 121.553 C 119.009 121.615,118.817 122.096,118.663 122.622 C 118.509 123.149,118.295 123.579,118.186 123.579 C 118.077 123.579,117.921 123.883,117.839 124.254 C 117.757 124.626,117.608 124.930,117.506 124.930 C 117.404 124.930,117.200 125.436,117.051 126.055 C 116.903 126.674,116.692 127.181,116.583 127.181 C 116.474 127.181,116.321 127.434,116.243 127.743 C 116.166 128.053,116.022 128.306,115.924 128.306 C 115.826 128.306,115.624 128.813,115.476 129.432 C 115.327 130.051,115.130 130.557,115.039 130.557 C 114.947 130.557,114.750 130.962,114.602 131.458 C 114.453 131.953,114.239 132.358,114.126 132.358 C 114.013 132.358,113.854 132.712,113.772 133.146 C 113.691 133.579,113.551 133.934,113.460 133.934 C 113.370 133.934,113.170 134.355,113.015 134.870 C 112.861 135.385,112.592 135.949,112.417 136.124 C 112.242 136.299,112.099 136.688,112.099 136.989 C 112.099 137.289,112.002 137.535,111.883 137.535 C 111.764 137.535,111.546 137.940,111.397 138.436 C 111.249 138.931,111.047 139.336,110.948 139.336 C 110.850 139.336,110.702 139.690,110.621 140.124 C 110.540 140.557,110.399 140.912,110.309 140.912 C 110.219 140.912,110.011 141.317,109.848 141.812 C 109.685 142.307,109.475 142.712,109.383 142.712 C 109.290 142.712,109.085 143.219,108.926 143.838 C 108.767 144.457,108.566 144.963,108.479 144.963 C 108.392 144.963,108.258 145.217,108.180 145.526 C 108.102 145.836,107.949 146.089,107.839 146.089 C 107.729 146.089,107.509 146.595,107.350 147.214 C 107.192 147.833,106.988 148.340,106.897 148.340 C 106.807 148.340,106.666 148.644,106.584 149.015 C 106.503 149.387,106.347 149.690,106.238 149.690 C 106.129 149.690,105.918 150.096,105.770 150.591 C 105.621 151.086,105.426 151.491,105.336 151.491 C 105.245 151.491,105.105 151.846,105.023 152.279 C 104.942 152.712,104.795 153.067,104.696 153.067 C 104.598 153.067,104.396 153.472,104.247 153.967 C 104.099 154.463,103.899 154.868,103.804 154.868 C 103.708 154.868,103.501 155.374,103.342 155.993 C 103.183 156.612,102.970 157.119,102.867 157.119 C 102.765 157.119,102.614 157.423,102.532 157.794 C 102.451 158.165,102.302 158.469,102.202 158.469 C 102.102 158.469,101.954 158.821,101.873 159.250 C 101.793 159.679,101.592 160.165,101.428 160.330 C 101.263 160.494,101.051 160.877,100.956 161.181 C 100.861 161.485,100.694 161.791,100.586 161.861 C 100.257 162.073,100.228 174.956,100.556 175.067 C 100.706 175.118,100.895 175.507,100.975 175.931 C 101.054 176.355,101.200 176.702,101.299 176.702 C 101.397 176.702,101.608 177.209,101.766 177.828 C 101.925 178.447,102.132 178.953,102.227 178.953 C 102.322 178.953,102.466 179.308,102.547 179.741 C 102.628 180.174,102.775 180.529,102.873 180.529 C 102.970 180.529,103.172 181.035,103.320 181.654 C 103.469 182.273,103.673 182.780,103.775 182.780 C 103.877 182.780,104.029 183.109,104.114 183.512 C 104.318 184.475,104.962 185.510,106.027 186.585 C 106.998 187.566,107.438 187.604,106.505 186.626 C 105.409 185.477,104.896 184.805,104.896 184.517 C 104.896 184.359,104.748 184.019,104.566 183.760 C 104.385 183.501,104.294 183.232,104.364 183.162 C 104.434 183.092,104.329 182.803,104.131 182.519 C 103.933 182.236,103.770 181.824,103.770 181.604 C 103.770 181.383,103.568 180.825,103.320 180.363 C 103.073 179.901,102.870 179.366,102.870 179.176 C 102.870 178.985,102.712 178.603,102.520 178.328 C 102.327 178.053,102.221 177.828,102.284 177.828 C 102.347 177.828,102.264 177.510,102.101 177.121 C 101.806 176.419,101.859 175.577,102.199 175.577 C 102.296 175.577,102.496 175.070,102.645 174.451 C 102.793 173.832,103.002 173.326,103.107 173.326 C 103.213 173.326,103.366 172.971,103.448 172.538 C 103.529 172.105,103.669 171.750,103.759 171.750 C 103.850 171.750,104.057 171.345,104.221 170.850 C 104.384 170.355,104.592 169.949,104.682 169.949 C 104.772 169.949,104.912 169.595,104.994 169.162 C 105.075 168.728,105.225 168.374,105.327 168.374 C 105.429 168.374,105.645 167.893,105.807 167.304 C 105.968 166.716,106.161 166.185,106.234 166.123 C 106.482 165.915,106.922 164.755,106.922 164.311 C 106.922 164.070,107.021 163.872,107.143 163.872 C 107.264 163.872,107.427 163.618,107.505 163.309 C 107.582 162.999,107.726 162.746,107.824 162.746 C 107.922 162.746,108.124 162.240,108.272 161.621 C 108.421 161.002,108.629 160.495,108.735 160.495 C 108.841 160.495,108.994 160.141,109.075 159.707 C 109.156 159.274,109.297 158.920,109.387 158.920 C 109.477 158.920,109.685 158.514,109.848 158.019 C 110.011 157.524,110.219 157.119,110.309 157.119 C 110.399 157.119,110.540 156.764,110.621 156.331 C 110.702 155.898,110.855 155.543,110.961 155.543 C 111.067 155.543,111.275 155.037,111.424 154.418 C 111.572 153.799,111.774 153.292,111.872 153.292 C 111.969 153.292,112.184 152.836,112.348 152.279 C 112.513 151.722,112.719 151.266,112.806 151.266 C 112.893 151.266,113.030 150.962,113.112 150.591 C 113.194 150.219,113.343 149.916,113.445 149.916 C 113.547 149.916,113.751 149.409,113.900 148.790 C 114.048 148.171,114.256 147.665,114.362 147.665 C 114.468 147.665,114.621 147.310,114.703 146.877 C 114.784 146.443,114.936 146.089,115.041 146.089 C 115.146 146.089,115.354 145.684,115.502 145.189 C 115.650 144.693,115.846 144.288,115.936 144.288 C 116.027 144.288,116.167 143.934,116.249 143.500 C 116.330 143.067,116.483 142.712,116.589 142.712 C 116.695 142.712,116.903 142.206,117.051 141.587 C 117.200 140.968,117.413 140.461,117.525 140.461 C 117.637 140.461,117.850 140.006,117.999 139.449 C 118.148 138.891,118.342 138.436,118.431 138.436 C 118.519 138.436,118.658 138.132,118.739 137.760 C 118.821 137.389,118.960 137.085,119.048 137.085 C 119.137 137.085,119.333 136.620,119.485 136.051 C 119.637 135.483,119.912 134.868,120.095 134.685 C 120.278 134.501,120.428 134.106,120.428 133.805 C 120.428 133.504,120.525 133.258,120.644 133.258 C 120.763 133.258,120.981 132.853,121.130 132.358 C 121.278 131.863,121.473 131.458,121.564 131.458 C 121.654 131.458,121.795 131.103,121.876 130.670 C 121.957 130.236,122.110 129.882,122.216 129.882 C 122.322 129.882,122.530 129.375,122.679 128.756 C 122.827 128.137,123.040 127.631,123.152 127.631 C 123.264 127.631,123.478 127.175,123.627 126.618 C 123.776 126.061,123.970 125.605,124.058 125.605 C 124.146 125.605,124.285 125.301,124.367 124.930 C 124.448 124.558,124.587 124.254,124.676 124.254 C 124.764 124.254,124.961 123.789,125.113 123.221 C 125.265 122.652,125.539 122.037,125.722 121.854 C 125.905 121.671,126.055 121.275,126.055 120.974 C 126.055 120.674,126.157 120.428,126.281 120.428 C 126.405 120.428,126.629 119.972,126.778 119.415 C 126.927 118.858,127.121 118.402,127.209 118.402 C 127.298 118.402,127.437 118.098,127.518 117.727 C 127.600 117.355,127.750 117.051,127.851 117.051 C 127.953 117.051,128.158 116.545,128.306 115.926 C 128.455 115.307,128.668 114.800,128.780 114.800 C 128.892 114.800,129.105 114.344,129.254 113.787 C 129.403 113.230,129.597 112.774,129.686 112.774 C 129.774 112.774,129.913 112.470,129.994 112.099 C 130.076 111.728,130.215 111.424,130.303 111.424 C 130.392 111.424,130.588 110.959,130.740 110.390 C 130.892 109.821,131.167 109.206,131.350 109.023 C 131.533 108.840,131.683 108.444,131.683 108.144 C 131.683 107.843,131.784 107.597,131.909 107.597 C 132.033 107.597,132.256 107.141,132.405 106.584 C 132.554 106.027,132.743 105.571,132.826 105.571 C 132.908 105.571,133.102 105.115,133.258 104.558 C 133.414 104.001,133.619 103.545,133.713 103.545 C 133.807 103.545,133.950 103.191,134.031 102.757 C 134.113 102.324,134.274 101.970,134.390 101.970 C 134.506 101.970,134.667 101.691,134.748 101.351 C 134.829 101.010,135.028 100.478,135.190 100.169 C 135.611 99.366,136.123 98.124,136.304 97.468 C 136.454 96.926,136.785 96.087,137.415 94.654 C 137.579 94.282,137.833 93.624,137.981 93.191 C 138.129 92.757,138.382 92.150,138.542 91.840 C 138.703 91.531,138.904 90.948,138.990 90.546 C 139.076 90.144,139.240 89.814,139.354 89.814 C 139.468 89.814,139.564 89.637,139.569 89.420 C 139.573 89.204,139.772 88.621,140.011 88.126 C 140.250 87.631,140.450 87.093,140.454 86.932 C 140.458 86.770,140.671 86.163,140.928 85.581 C 141.184 85.000,141.528 84.221,141.691 83.849 C 141.854 83.478,142.056 82.921,142.140 82.611 C 142.288 82.068,142.703 81.086,143.283 79.910 C 143.436 79.600,143.631 79.018,143.717 78.616 C 143.803 78.213,143.951 77.884,144.045 77.884 C 144.139 77.884,144.341 77.327,144.494 76.646 C 144.646 75.965,144.865 75.408,144.980 75.408 C 145.094 75.408,145.189 75.250,145.189 75.058 C 145.189 74.865,145.394 74.258,145.644 73.707 C 145.895 73.157,146.161 72.403,146.235 72.032 C 146.310 71.660,146.449 71.356,146.545 71.356 C 146.641 71.356,146.809 70.977,146.919 70.514 C 147.200 69.326,147.697 69.333,149.261 70.548 C 149.993 71.116,150.648 71.581,150.716 71.581 C 150.845 71.581,151.933 72.061,154.334 73.175 C 156.388 74.129,158.684 74.959,159.228 74.946 C 159.492 74.939,159.145 74.754,158.458 74.534 C 157.165 74.120,154.812 72.947,154.680 72.651 C 154.639 72.558,154.505 72.482,154.383 72.482 C 154.260 72.482,154.008 72.330,153.823 72.144 C 153.637 71.958,153.589 71.806,153.716 71.806 C 153.843 71.806,154.013 71.452,154.095 71.019 C 154.176 70.585,154.309 70.231,154.391 70.231 C 154.473 70.231,154.669 69.550,154.827 68.718 C 154.985 67.886,155.201 67.151,155.308 67.085 C 155.415 67.019,155.633 66.333,155.793 65.559 C 155.953 64.786,156.153 64.153,156.238 64.153 C 156.323 64.153,156.461 63.697,156.544 63.140 C 156.628 62.583,156.780 62.127,156.882 62.127 C 156.984 62.127,157.192 61.469,157.344 60.664 C 157.496 59.859,157.706 59.201,157.812 59.201 C 157.917 59.201,158.071 58.694,158.153 58.075 C 158.235 57.456,158.390 56.950,158.498 56.950 C 158.606 56.950,158.694 56.759,158.694 56.526 C 158.694 55.188,167.246 52.851,176.477 51.665 C 178.025 51.466,179.595 51.256,179.966 51.198 C 180.338 51.139,181.249 51.033,181.992 50.960 C 183.918 50.774,184.094 50.422,182.262 50.422 C 181.433 50.422,180.754 50.512,180.754 50.623 M215.869 50.647 C 215.869 50.771,216.058 50.872,216.288 50.872 C 216.519 50.872,217.177 50.937,217.751 51.015 C 218.627 51.135,218.796 51.099,218.796 50.790 C 218.796 50.487,218.537 50.422,217.333 50.422 C 216.507 50.422,215.869 50.520,215.869 50.647 M219.338 51.064 C 219.427 51.208,220.064 51.325,220.779 51.328 C 221.483 51.331,222.482 51.431,222.998 51.550 C 223.514 51.669,224.881 51.919,226.037 52.106 C 233.467 53.306,234.064 53.547,234.541 55.543 C 234.696 56.193,234.905 56.725,235.005 56.725 C 235.106 56.725,235.257 57.130,235.340 57.625 C 235.424 58.120,235.573 58.526,235.672 58.526 C 235.843 58.526,235.908 58.747,236.258 60.495 C 236.339 60.898,236.478 61.227,236.568 61.227 C 236.658 61.227,236.857 61.784,237.009 62.465 C 237.161 63.146,237.371 63.703,237.475 63.703 C 237.579 63.703,237.733 64.108,237.817 64.603 C 237.900 65.098,238.054 65.504,238.158 65.504 C 238.262 65.504,238.472 66.061,238.624 66.742 C 238.776 67.423,238.975 67.980,239.065 67.980 C 239.156 67.980,239.296 68.334,239.377 68.768 C 239.459 69.201,239.606 69.555,239.704 69.555 C 239.803 69.555,240.008 70.113,240.160 70.793 C 240.313 71.474,240.523 72.032,240.627 72.032 C 240.731 72.032,240.884 72.437,240.968 72.932 C 241.052 73.427,241.212 73.832,241.325 73.832 C 242.182 73.832,241.363 74.306,238.829 75.276 C 237.625 75.737,237.487 75.838,238.048 75.847 C 238.423 75.853,238.929 75.722,239.173 75.556 C 239.418 75.390,240.023 75.143,240.518 75.007 C 242.025 74.593,243.638 74.038,244.232 73.728 C 244.541 73.566,245.121 73.364,245.520 73.279 C 245.920 73.194,246.861 72.751,247.611 72.296 C 249.872 70.925,250.612 70.503,251.379 70.145 C 251.781 69.957,252.113 69.672,252.117 69.511 C 252.120 69.350,252.678 68.577,253.356 67.794 L 254.590 66.369 255.236 67.794 C 255.591 68.577,256.309 70.129,256.831 71.244 C 257.353 72.358,258.286 74.384,258.904 75.746 C 259.522 77.107,260.263 78.728,260.550 79.347 C 260.837 79.966,261.321 81.030,261.624 81.711 C 261.928 82.392,262.483 83.607,262.858 84.412 C 263.498 85.786,264.792 88.638,266.177 91.728 C 266.510 92.470,267.062 93.686,267.404 94.429 C 269.107 98.134,271.019 102.407,271.019 102.507 C 271.019 102.614,272.900 106.820,274.051 109.285 C 274.340 109.904,274.904 111.171,275.304 112.099 C 275.705 113.028,276.373 114.517,276.789 115.409 C 277.206 116.301,277.546 117.087,277.546 117.156 C 277.546 117.225,278.053 118.353,278.672 119.662 C 279.291 120.971,279.797 122.090,279.797 122.149 C 279.797 122.208,280.042 122.782,280.342 123.424 C 280.641 124.066,281.562 126.111,282.389 127.968 C 283.794 131.124,284.160 131.937,285.559 135.009 C 285.857 135.662,286.100 136.244,286.100 136.303 C 286.100 136.361,286.397 137.042,286.759 137.816 C 287.122 138.590,288.749 142.212,290.376 145.864 C 292.002 149.516,293.519 152.909,293.747 153.405 C 293.975 153.900,294.768 155.672,295.510 157.344 C 296.252 159.015,297.114 160.942,297.427 161.625 C 298.338 163.613,298.931 165.206,298.931 165.662 C 298.931 165.895,299.034 166.119,299.159 166.161 C 299.285 166.203,299.451 166.921,299.529 167.756 C 299.666 169.221,300.056 169.900,300.056 168.673 C 300.056 167.801,299.572 165.129,299.390 164.997 C 299.305 164.935,299.105 163.998,298.947 162.915 C 298.789 161.832,298.576 160.945,298.475 160.945 C 298.374 160.945,298.221 160.287,298.135 159.482 C 298.048 158.678,297.905 158.019,297.815 158.019 C 297.725 158.019,297.527 157.462,297.375 156.781 C 297.222 156.100,297.015 155.543,296.913 155.543 C 296.812 155.543,296.665 155.290,296.587 154.980 C 296.510 154.671,296.357 154.418,296.248 154.418 C 296.139 154.418,295.928 153.911,295.779 153.292 C 295.631 152.673,295.426 152.167,295.325 152.167 C 295.223 152.167,295.073 151.863,294.992 151.491 C 294.910 151.120,294.761 150.816,294.661 150.816 C 294.561 150.816,294.344 150.360,294.179 149.803 C 294.015 149.246,293.814 148.790,293.734 148.790 C 293.653 148.790,293.459 148.334,293.303 147.777 C 293.147 147.220,292.936 146.764,292.834 146.764 C 292.732 146.764,292.582 146.410,292.501 145.976 C 292.419 145.543,292.279 145.189,292.189 145.189 C 292.099 145.189,291.891 144.783,291.728 144.288 C 291.564 143.793,291.353 143.388,291.259 143.388 C 291.165 143.388,291.021 143.084,290.940 142.712 C 290.858 142.341,290.719 142.037,290.631 142.037 C 290.543 142.037,290.348 141.581,290.199 141.024 C 290.050 140.467,289.835 140.011,289.720 140.011 C 289.606 140.011,289.446 139.707,289.364 139.336 C 289.283 138.965,289.142 138.661,289.051 138.661 C 288.961 138.661,288.757 138.154,288.598 137.535 C 288.439 136.916,288.222 136.410,288.114 136.410 C 288.007 136.410,287.798 136.005,287.649 135.509 C 287.501 135.014,287.306 134.609,287.215 134.609 C 287.125 134.609,286.984 134.254,286.903 133.821 C 286.822 133.388,286.675 133.033,286.576 133.033 C 286.478 133.033,286.264 132.628,286.100 132.133 C 285.937 131.638,285.729 131.232,285.639 131.232 C 285.549 131.232,285.408 130.878,285.327 130.445 C 285.246 130.011,285.083 129.657,284.964 129.657 C 284.846 129.657,284.750 129.520,284.750 129.353 C 284.750 129.185,284.496 128.572,284.187 127.990 C 283.877 127.408,283.624 126.785,283.624 126.606 C 283.624 126.427,283.536 126.280,283.428 126.280 C 283.321 126.280,283.105 125.824,282.949 125.267 C 282.793 124.710,282.585 124.254,282.487 124.254 C 282.389 124.254,282.238 123.925,282.151 123.523 C 281.986 122.762,281.148 121.042,280.884 120.921 C 280.801 120.883,280.604 120.351,280.448 119.739 C 280.291 119.128,280.091 118.627,280.004 118.627 C 279.917 118.627,279.783 118.374,279.705 118.064 C 279.627 117.755,279.474 117.501,279.364 117.501 C 279.254 117.501,279.034 116.995,278.875 116.376 C 278.717 115.757,278.513 115.250,278.422 115.250 C 278.332 115.250,278.191 114.947,278.109 114.575 C 278.028 114.204,277.872 113.900,277.763 113.900 C 277.654 113.900,277.443 113.495,277.295 112.999 C 277.146 112.504,276.940 112.099,276.836 112.099 C 276.731 112.099,276.646 111.923,276.646 111.708 C 276.646 111.337,275.560 108.961,275.281 108.723 C 275.209 108.661,275.017 108.129,274.856 107.541 C 274.694 106.953,274.482 106.472,274.384 106.472 C 274.286 106.472,274.139 106.168,274.057 105.796 C 273.976 105.425,273.817 105.121,273.705 105.121 C 273.593 105.121,273.386 104.665,273.246 104.108 C 273.106 103.551,272.910 103.095,272.811 103.095 C 272.711 103.095,272.563 102.791,272.482 102.420 C 272.400 102.048,272.248 101.745,272.144 101.745 C 272.040 101.745,271.884 101.424,271.798 101.032 C 271.712 100.640,271.400 99.866,271.105 99.310 C 270.810 98.755,270.568 98.164,270.568 97.997 C 270.568 97.830,270.472 97.693,270.353 97.693 C 270.235 97.693,270.072 97.338,269.991 96.905 C 269.909 96.472,269.769 96.117,269.679 96.117 C 269.589 96.117,269.381 95.712,269.218 95.217 C 269.054 94.721,268.840 94.316,268.742 94.316 C 268.643 94.316,268.496 93.962,268.415 93.528 C 268.334 93.095,268.193 92.741,268.103 92.741 C 268.012 92.741,267.817 92.335,267.669 91.840 C 267.520 91.345,267.312 90.940,267.205 90.940 C 267.099 90.940,266.890 90.433,266.742 89.814 C 266.593 89.195,266.389 88.689,266.287 88.689 C 266.185 88.689,266.035 88.385,265.954 88.014 C 265.872 87.642,265.712 87.338,265.597 87.338 C 265.483 87.338,265.267 86.882,265.118 86.325 C 264.969 85.768,264.775 85.312,264.687 85.312 C 264.599 85.312,264.460 85.008,264.378 84.637 C 264.297 84.266,264.150 83.962,264.052 83.962 C 263.954 83.962,263.740 83.481,263.576 82.893 C 263.413 82.304,263.146 81.689,262.984 81.526 C 262.822 81.362,262.690 81.084,262.690 80.907 C 262.690 80.730,262.602 80.585,262.494 80.585 C 262.386 80.585,262.171 80.129,262.015 79.572 C 261.859 79.015,261.664 78.559,261.582 78.559 C 261.500 78.559,261.311 78.104,261.162 77.546 C 261.013 76.989,260.797 76.533,260.683 76.533 C 260.568 76.533,260.408 76.230,260.326 75.858 C 260.245 75.487,260.085 75.183,259.971 75.183 C 259.857 75.183,259.764 75.007,259.764 74.792 C 259.764 74.395,258.658 72.015,258.376 71.803 C 258.291 71.740,258.100 71.208,257.953 70.622 C 257.805 70.035,257.606 69.555,257.510 69.555 C 257.415 69.555,257.273 69.302,257.195 68.993 C 257.117 68.683,256.965 68.430,256.856 68.430 C 256.746 68.430,256.536 67.923,256.387 67.304 C 256.239 66.685,256.042 66.179,255.950 66.179 C 255.858 66.179,255.662 65.774,255.513 65.279 C 255.365 64.783,255.154 64.378,255.045 64.378 C 254.936 64.378,254.781 64.074,254.699 63.703 C 254.617 63.331,254.452 63.028,254.332 63.028 C 254.211 63.028,254.012 62.738,253.889 62.385 C 253.765 62.031,253.421 61.611,253.123 61.452 C 252.826 61.293,252.481 60.873,252.358 60.519 C 252.235 60.166,251.992 59.876,251.819 59.876 C 251.646 59.876,251.277 59.680,251.001 59.440 C 250.724 59.200,250.211 58.940,249.860 58.863 C 249.509 58.786,249.166 58.577,249.097 58.399 C 249.029 58.221,248.818 58.075,248.628 58.075 C 248.439 58.075,248.284 57.993,248.284 57.892 C 248.284 57.792,247.929 57.570,247.496 57.400 C 247.062 57.230,246.708 57.018,246.708 56.928 C 246.708 56.838,246.303 56.696,245.808 56.612 C 245.312 56.529,244.907 56.384,244.907 56.291 C 244.907 56.198,244.350 55.988,243.669 55.824 C 242.988 55.661,242.431 55.442,242.431 55.338 C 242.431 55.234,242.185 55.149,241.884 55.149 C 241.584 55.149,241.204 55.018,241.040 54.858 C 240.708 54.532,237.798 53.939,237.483 54.134 C 237.372 54.202,237.199 54.121,237.099 53.952 C 236.998 53.784,236.107 53.512,235.115 53.348 C 234.125 53.184,233.257 52.962,233.186 52.856 C 233.115 52.750,232.381 52.600,231.554 52.523 C 230.727 52.446,230.051 52.310,230.051 52.220 C 230.051 52.131,228.759 51.932,227.181 51.777 C 225.602 51.623,224.259 51.415,224.196 51.315 C 224.134 51.216,222.979 51.061,221.630 50.971 C 219.809 50.849,219.220 50.873,219.338 51.064 M160.720 75.402 C 160.720 75.575,162.319 75.911,162.461 75.768 C 162.503 75.726,162.128 75.588,161.629 75.461 C 161.129 75.335,160.720 75.308,160.720 75.402 M163.872 76.298 C 164.057 76.424,164.403 76.528,164.641 76.530 C 165.217 76.535,165.037 76.406,164.209 76.221 C 163.716 76.110,163.625 76.131,163.872 76.298 M185.200 79.619 C 185.478 79.672,185.934 79.672,186.213 79.619 C 186.491 79.565,186.263 79.521,185.706 79.521 C 185.149 79.521,184.921 79.565,185.200 79.619 M214.463 79.623 C 214.865 79.673,215.523 79.673,215.926 79.623 C 216.328 79.573,215.999 79.532,215.194 79.532 C 214.389 79.532,214.060 79.573,214.463 79.623 M299.381 170.174 C 299.381 170.546,299.482 170.850,299.606 170.850 C 299.730 170.850,299.831 170.546,299.831 170.174 C 299.831 169.803,299.730 169.499,299.606 169.499 C 299.482 169.499,299.381 169.803,299.381 170.174 M299.156 171.750 C 299.156 172.122,299.257 172.425,299.381 172.425 C 299.505 172.425,299.606 172.122,299.606 171.750 C 299.606 171.379,299.505 171.075,299.381 171.075 C 299.257 171.075,299.156 171.379,299.156 171.750 M298.781 173.003 C 298.707 173.197,298.761 173.471,298.901 173.611 C 299.091 173.801,299.156 173.711,299.156 173.258 C 299.156 172.581,298.987 172.466,298.781 173.003 M298.481 174.676 C 298.481 174.924,298.582 175.127,298.706 175.127 C 298.829 175.127,298.931 174.924,298.931 174.676 C 298.931 174.429,298.829 174.226,298.706 174.226 C 298.582 174.226,298.481 174.429,298.481 174.676 M298.406 175.727 C 298.172 175.960,298.229 176.702,298.481 176.702 C 298.604 176.702,298.706 176.449,298.706 176.140 C 298.706 175.550,298.654 175.479,298.406 175.727 M297.925 177.669 C 297.829 177.891,297.813 178.135,297.890 178.213 C 298.119 178.441,298.303 178.120,298.198 177.677 C 298.104 177.283,298.092 177.283,297.925 177.669 M297.580 179.403 C 297.580 179.651,297.681 179.854,297.805 179.854 C 297.929 179.854,298.030 179.651,298.030 179.403 C 298.030 179.156,297.929 178.953,297.805 178.953 C 297.681 178.953,297.580 179.156,297.580 179.403 M295.207 183.245 C 295.126 183.377,295.113 183.539,295.179 183.605 C 295.340 183.767,295.779 183.482,295.779 183.217 C 295.779 182.929,295.391 182.948,295.207 183.245 M294.565 184.262 C 294.481 184.481,294.531 184.584,294.696 184.529 C 295.032 184.417,295.218 183.905,294.922 183.905 C 294.801 183.905,294.641 184.066,294.565 184.262 M293.904 185.294 C 293.677 185.541,293.551 185.804,293.625 185.877 C 293.761 186.014,294.409 185.280,294.422 184.975 C 294.431 184.743,294.378 184.776,293.904 185.294 M292.553 187.207 C 292.280 187.480,292.397 187.720,292.741 187.588 C 292.926 187.517,293.078 187.368,293.078 187.258 C 293.078 187.022,292.768 186.992,292.553 187.207 M107.147 187.840 C 107.147 188.061,110.304 191.178,110.415 191.067 C 110.556 190.926,107.607 187.732,107.337 187.732 C 107.233 187.732,107.147 187.781,107.147 187.840 M290.690 190.155 C 290.552 190.246,290.269 190.675,290.060 191.109 C 289.774 191.702,289.764 191.785,290.021 191.446 C 290.208 191.199,290.446 190.895,290.548 190.771 C 291.082 190.127,291.145 189.854,290.690 190.155 M111.424 192.461 C 111.424 192.586,111.638 192.865,111.899 193.080 C 112.459 193.542,112.757 193.834,113.249 194.404 C 113.448 194.634,113.817 194.990,114.069 195.194 C 114.321 195.398,114.632 195.752,114.759 195.980 C 114.887 196.208,115.057 196.329,115.137 196.249 C 115.218 196.169,114.947 195.754,114.535 195.327 C 114.124 194.900,113.302 194.030,112.709 193.393 C 111.597 192.198,111.424 192.072,111.424 192.461 M287.620 193.153 C 287.403 193.391,287.302 193.581,287.394 193.578 C 287.630 193.568,288.351 193.003,288.351 192.828 C 288.351 192.568,288.020 192.715,287.620 193.153 M286.004 194.377 C 285.765 194.558,285.640 194.775,285.725 194.860 C 285.810 194.945,286.085 194.795,286.336 194.525 C 286.853 193.970,286.657 193.883,286.004 194.377 M284.878 195.289 C 284.439 195.728,284.429 195.858,284.845 195.699 C 285.021 195.631,285.220 195.432,285.288 195.256 C 285.448 194.839,285.317 194.850,284.878 195.289 M283.061 196.759 C 282.566 197.136,282.010 197.531,281.825 197.636 C 281.640 197.742,281.556 197.894,281.638 197.976 C 281.719 198.057,281.990 197.938,282.239 197.711 C 282.793 197.207,283.122 196.947,283.843 196.447 C 284.149 196.235,284.301 196.064,284.181 196.067 C 284.060 196.070,283.557 196.382,283.061 196.759 M115.612 196.830 C 115.687 197.026,115.848 197.186,115.969 197.186 C 116.264 197.186,116.079 196.675,115.743 196.563 C 115.578 196.508,115.528 196.611,115.612 196.830 M116.770 197.461 C 117.048 197.595,117.276 197.791,117.276 197.896 C 117.276 198.001,117.378 198.087,117.501 198.087 C 117.930 198.087,117.724 197.708,117.153 197.447 C 116.431 197.119,116.085 197.131,116.770 197.461 M280.412 198.762 C 280.200 199.010,280.102 199.209,280.194 199.205 C 280.428 199.195,281.148 198.629,281.148 198.456 C 281.148 198.171,280.791 198.320,280.412 198.762 M119.664 199.306 C 119.739 199.502,119.899 199.662,120.020 199.662 C 120.316 199.662,120.131 199.151,119.794 199.039 C 119.630 198.984,119.580 199.087,119.664 199.306 M121.145 200.127 C 121.199 200.289,121.377 200.466,121.539 200.521 C 121.708 200.577,121.792 200.492,121.736 200.324 C 121.682 200.161,121.505 199.984,121.342 199.930 C 121.173 199.873,121.089 199.958,121.145 200.127 M277.675 200.916 C 277.236 201.355,277.225 201.486,277.642 201.326 C 277.818 201.259,278.017 201.059,278.085 200.883 C 278.244 200.467,278.114 200.478,277.675 200.916 M276.452 201.933 C 276.160 202.170,276.008 202.360,276.115 202.356 C 276.389 202.346,277.195 201.712,277.080 201.597 C 277.027 201.545,276.745 201.696,276.452 201.933 M127.631 204.128 C 127.631 204.301,128.599 204.840,128.910 204.840 C 128.983 204.840,128.785 204.637,128.470 204.389 C 127.850 203.902,127.631 203.833,127.631 204.128 M268.261 205.670 C 268.044 205.727,267.867 205.867,267.867 205.982 C 267.867 206.284,268.168 206.238,268.668 205.860 C 269.106 205.529,268.997 205.478,268.261 205.670 M133.258 207.316 C 133.258 207.440,133.410 207.541,133.596 207.541 C 133.782 207.541,133.934 207.440,133.934 207.316 C 133.934 207.192,133.782 207.091,133.596 207.091 C 133.410 207.091,133.258 207.192,133.258 207.316 M135.734 208.216 C 135.734 208.340,135.886 208.441,136.072 208.441 C 136.258 208.441,136.410 208.340,136.410 208.216 C 136.410 208.092,136.258 207.991,136.072 207.991 C 135.886 207.991,135.734 208.092,135.734 208.216 M146.989 212.268 C 146.989 212.392,147.141 212.493,147.327 212.493 C 147.513 212.493,147.665 212.392,147.665 212.268 C 147.665 212.144,147.513 212.043,147.327 212.043 C 147.141 212.043,146.989 212.144,146.989 212.268 M252.560 212.268 C 252.560 212.392,252.712 212.493,252.898 212.493 C 253.084 212.493,253.236 212.392,253.236 212.268 C 253.236 212.144,253.084 212.043,252.898 212.043 C 252.712 212.043,252.560 212.144,252.560 212.268 M154.643 214.744 C 154.643 214.868,154.871 214.967,155.149 214.966 C 155.559 214.963,155.591 214.920,155.318 214.744 C 154.882 214.462,154.643 214.462,154.643 214.744 M242.881 214.744 C 242.881 214.868,243.033 214.969,243.219 214.969 C 243.405 214.969,243.557 214.868,243.557 214.744 C 243.557 214.620,243.405 214.519,243.219 214.519 C 243.033 214.519,242.881 214.620,242.881 214.744 M158.019 215.419 C 158.019 215.543,158.247 215.643,158.526 215.641 C 158.935 215.638,158.967 215.596,158.694 215.419 C 158.258 215.137,158.019 215.137,158.019 215.419 M237.029 216.320 C 237.029 216.443,237.181 216.545,237.366 216.545 C 237.552 216.545,237.704 216.443,237.704 216.320 C 237.704 216.196,237.552 216.095,237.366 216.095 C 237.181 216.095,237.029 216.196,237.029 216.320 M166.460 216.995 C 166.537 217.119,166.821 217.218,167.093 217.217 C 167.494 217.214,167.523 217.172,167.248 216.995 C 166.805 216.708,166.283 216.708,166.460 216.995 M228.250 217.895 C 228.250 218.019,228.452 218.120,228.700 218.120 C 228.948 218.120,229.150 218.019,229.150 217.895 C 229.150 217.772,228.948 217.670,228.700 217.670 C 228.452 217.670,228.250 217.772,228.250 217.895 M185.312 219.626 C 185.529 219.683,185.884 219.683,186.100 219.626 C 186.317 219.570,186.140 219.523,185.706 219.523 C 185.273 219.523,185.096 219.570,185.312 219.626 " stroke="none" fill="#1d3a39" fill-rule="evenodd"></path><path id="path4" d="M211.070 80.320 C 211.234 80.484,211.368 80.686,211.368 80.770 C 211.369 80.956,211.915 84.189,212.372 86.720 C 212.952 89.926,213.346 92.153,213.459 92.853 C 213.519 93.225,214.029 96.263,214.593 99.606 C 216.590 111.440,217.976 120.291,218.805 126.505 C 218.929 127.434,219.175 129.105,219.353 130.219 C 219.759 132.768,220.325 136.658,220.483 137.985 C 220.549 138.542,220.859 140.822,221.172 143.050 C 221.485 145.279,222.087 149.837,222.511 153.180 C 222.934 156.522,223.491 160.878,223.748 162.859 C 224.005 164.840,224.314 167.372,224.435 168.486 C 224.556 169.600,224.801 171.626,224.979 172.988 C 225.158 174.350,225.517 177.338,225.777 179.629 C 226.037 181.919,226.417 184.958,226.621 186.382 C 227.075 189.550,227.332 217.103,226.912 217.523 C 226.524 217.911,226.638 218.120,227.237 218.120 C 227.546 218.120,227.800 218.031,227.800 217.922 C 227.800 217.723,229.708 217.445,231.675 217.358 C 232.258 217.332,232.807 217.240,232.894 217.153 C 232.981 217.066,233.288 216.995,233.577 216.995 C 233.866 216.995,234.102 216.882,234.102 216.744 C 234.102 216.597,234.337 216.537,234.665 216.600 C 234.975 216.659,235.228 216.609,235.228 216.488 C 235.228 216.367,235.527 216.312,235.893 216.366 C 236.552 216.463,236.558 216.455,236.443 215.548 C 236.379 215.044,236.177 212.960,235.993 210.917 C 235.443 204.784,235.100 201.595,234.952 201.238 C 234.875 201.052,234.688 199.077,234.537 196.849 C 234.386 194.620,234.187 192.696,234.096 192.572 C 234.005 192.448,233.857 191.156,233.769 189.702 C 233.680 188.247,233.532 187.057,233.439 187.057 C 233.347 187.057,233.136 185.234,232.971 183.005 C 232.805 180.777,232.601 178.953,232.517 178.953 C 232.432 178.953,232.290 177.865,232.201 176.534 C 232.112 175.203,231.962 174.013,231.867 173.889 C 231.773 173.765,231.565 172.043,231.406 170.062 C 231.246 168.081,231.042 166.359,230.951 166.235 C 230.860 166.111,230.654 164.415,230.492 162.465 C 230.330 160.515,230.125 158.920,230.036 158.920 C 229.947 158.920,229.800 157.881,229.710 156.612 C 229.620 155.343,229.477 154.254,229.392 154.192 C 229.307 154.131,229.062 152.510,228.849 150.591 C 228.146 144.275,227.953 142.826,227.796 142.712 C 227.711 142.651,227.507 141.156,227.344 139.392 C 227.180 137.628,226.981 136.185,226.902 136.185 C 226.822 136.185,226.625 134.792,226.464 133.089 C 226.303 131.387,226.092 129.893,225.995 129.769 C 225.899 129.645,225.746 128.658,225.657 127.575 C 225.568 126.491,225.421 125.605,225.331 125.605 C 225.241 125.605,225.035 124.237,224.873 122.566 C 224.712 120.895,224.505 119.527,224.413 119.527 C 224.321 119.527,224.174 118.616,224.086 117.501 C 223.997 116.387,223.856 115.476,223.770 115.476 C 223.685 115.476,223.482 114.184,223.319 112.606 C 223.157 111.027,222.945 109.685,222.850 109.623 C 222.754 109.561,222.603 108.675,222.513 107.653 C 222.424 106.632,222.274 105.796,222.180 105.796 C 222.086 105.796,221.880 104.530,221.722 102.983 C 221.564 101.435,221.362 100.169,221.272 100.169 C 221.182 100.169,220.979 98.903,220.822 97.355 C 220.664 95.808,220.461 94.541,220.372 94.541 C 220.282 94.541,220.140 93.876,220.057 93.063 C 219.974 92.249,219.816 91.414,219.707 91.205 C 219.598 90.997,219.382 90.068,219.227 89.139 C 219.073 88.210,218.848 87.198,218.728 86.888 C 218.607 86.579,218.427 85.920,218.327 85.425 C 218.227 84.930,218.048 84.119,217.930 83.624 C 217.812 83.129,217.605 82.184,217.470 81.525 C 217.117 79.795,217.282 79.867,213.860 79.949 C 211.301 80.010,210.824 80.073,211.070 80.320 M192.012 80.300 C 188.883 80.392,189.035 80.252,188.689 83.353 C 188.093 88.716,187.482 94.529,187.277 96.792 C 187.160 98.092,186.963 99.713,186.840 100.394 C 186.716 101.075,186.511 103.050,186.383 104.783 C 186.255 106.517,186.050 108.644,185.928 109.510 C 185.805 110.377,185.543 112.909,185.345 115.138 C 185.147 117.366,184.845 120.557,184.673 122.228 C 184.501 123.900,184.213 127.040,184.033 129.207 C 183.853 131.373,183.599 134.057,183.470 135.172 C 183.097 138.389,182.809 141.587,182.458 146.427 C 182.278 148.903,182.027 151.739,181.900 152.729 C 181.773 153.720,181.561 156.201,181.430 158.244 C 181.298 160.287,181.093 162.870,180.974 163.984 C 180.679 166.762,180.374 170.688,179.979 176.815 C 179.795 179.662,179.544 182.802,179.420 183.793 C 179.297 184.783,179.133 186.860,179.056 188.407 C 178.980 189.955,178.779 192.234,178.610 193.472 C 178.441 194.710,178.233 196.609,178.147 197.693 C 178.061 198.776,177.916 199.662,177.824 199.662 C 177.732 199.662,177.584 200.625,177.496 201.801 C 177.408 202.977,177.261 203.939,177.171 203.939 C 177.080 203.939,176.872 205.509,176.709 207.428 C 176.547 209.347,176.346 210.917,176.264 210.917 C 176.130 210.917,175.564 216.396,175.573 217.614 C 175.575 217.917,175.715 218.120,175.922 218.120 C 176.111 218.120,176.326 218.275,176.398 218.464 C 176.497 218.722,176.604 218.746,176.830 218.558 C 177.128 218.310,178.053 218.459,178.053 218.755 C 178.053 218.839,178.686 218.925,179.460 218.946 C 180.234 218.967,182.285 219.030,184.018 219.087 C 185.751 219.143,186.587 219.146,185.875 219.093 L 184.581 218.998 184.577 216.027 C 184.576 214.393,184.728 210.270,184.915 206.866 C 185.103 203.461,185.361 198.649,185.487 196.173 C 185.892 188.264,186.476 179.237,186.944 173.663 C 187.120 171.559,187.373 168.469,187.505 166.798 C 187.845 162.493,188.147 159.099,188.535 155.205 C 188.720 153.348,188.975 150.765,189.102 149.465 C 189.229 148.165,189.424 146.292,189.535 145.301 C 189.646 144.311,189.847 142.335,189.983 140.912 C 190.119 139.488,190.372 137.259,190.545 135.959 C 190.719 134.660,190.974 132.583,191.112 131.345 C 191.250 130.107,191.453 128.385,191.564 127.518 C 191.674 126.652,191.880 124.980,192.020 123.804 C 192.160 122.628,192.367 121.109,192.479 120.428 C 192.682 119.190,192.990 116.980,193.371 114.012 C 193.482 113.146,193.673 108.739,193.796 104.221 C 193.919 99.702,194.129 94.131,194.264 91.840 C 194.400 89.550,194.581 86.107,194.666 84.189 L 194.823 80.701 195.498 80.557 C 195.869 80.478,196.021 80.400,195.836 80.384 C 195.650 80.367,195.295 80.325,195.048 80.289 C 194.800 80.253,193.434 80.258,192.012 80.300 M206.472 80.290 C 206.688 80.347,207.043 80.347,207.259 80.290 C 207.476 80.234,207.299 80.187,206.866 80.187 C 206.432 80.187,206.255 80.234,206.472 80.290 M223.860 218.120 C 223.682 218.409,224.652 218.409,225.098 218.120 C 225.355 217.954,225.264 217.901,224.718 217.899 C 224.323 217.897,223.937 217.997,223.860 218.120 M194.147 219.694 C 195.321 219.890,197.330 219.984,197.168 219.836 C 197.116 219.789,196.162 219.695,195.048 219.628 C 193.556 219.539,193.318 219.556,194.147 219.694 M203.548 220.083 C 203.891 220.134,204.397 220.133,204.674 220.080 C 204.951 220.026,204.671 219.984,204.052 219.986 C 203.433 219.987,203.206 220.031,203.548 220.083 " stroke="none" fill="#85bcb4" fill-rule="evenodd"></path></g></svg>