<?xml version="1.0" encoding="iso-8859-1"?>
<!-- Generator: Adobe Illustrator 16.0.0, SVG Export Plug-In . SVG Version: 6.00 Build 0)  -->
<!DOCTYPE svg PUBLIC "-//W3C//DTD SVG 1.1//EN" "http://www.w3.org/Graphics/SVG/1.1/DTD/svg11.dtd">
<svg version="1.1" id="Capa_1" xmlns="http://www.w3.org/2000/svg" xmlns:xlink="http://www.w3.org/1999/xlink" x="0px" y="0px"
	 width="68.675px" height="68.675px" viewBox="0 0 68.675 68.675" style="enable-background:new 0 0 68.675 68.675;"
	 xml:space="preserve">
<g>
	<g>
		<path d="M67.683,30.151L53.394,19.149V7.684c0-1.404-1.139-2.544-2.543-2.544s-2.543,1.14-2.543,2.544v7.547l-12.42-9.562
			c-0.914-0.704-2.188-0.704-3.104,0L0.992,30.151c-1.113,0.856-1.32,2.453-0.464,3.565c0.856,1.113,2.454,1.32,3.567,0.464
			l2.793-2.15v28.961c0,1.402,1.139,2.543,2.543,2.543h44.37L43.646,53.381c-2.662,1.782-5.863,2.823-9.309,2.823
			c-9.248,0-16.745-7.498-16.745-16.743c0-9.248,7.497-16.745,16.745-16.745c9.247,0,16.743,7.497,16.743,16.745
			c0,3.35-0.984,6.466-2.68,9.082l13.004,13.004c0.039-0.181,0.062-0.365,0.062-0.558V31.783l3.11,2.396
			c0.463,0.355,1.009,0.527,1.552,0.527c0.762,0,1.516-0.34,2.016-0.991C69.004,32.604,68.797,31.007,67.683,30.151z"/>
		<path d="M34.338,25.17c-7.791,0-14.105,6.316-14.105,14.104c0,7.791,6.314,14.104,14.105,14.104
			c7.788,0,14.104-6.312,14.104-14.104C48.441,31.486,42.126,25.17,34.338,25.17z M43.56,41.178c-1.17,0-2.119-0.949-2.119-2.119
			c0-4.038-3.285-7.322-7.322-7.322c-1.171,0-2.119-0.949-2.119-2.12c0-1.17,0.948-2.12,2.119-2.12
			c6.375,0,11.562,5.188,11.562,11.562C45.679,40.229,44.731,41.178,43.56,41.178z"/>
	</g>
</g>
<g>
</g>
<g>
</g>
<g>
</g>
<g>
</g>
<g>
</g>
<g>
</g>
<g>
</g>
<g>
</g>
<g>
</g>
<g>
</g>
<g>
</g>
<g>
</g>
<g>
</g>
<g>
</g>
<g>
</g>
</svg>
